# xmcd
#
# Track frame offsets:
#   150
#   13155
#   22832
#   33959
#   55358
#   72665
#   83790
#   105094
#   116940
#   130143
#   144226
#   155949
#   169478
#   192285
#   207692
#   220808
#   239592
#   258363
#   271810
#
# Disc length: 3926 seconds
#
# Revision: 0
# Processed by: cddbd v1.5.1PL2 Copyright (c) Steve Scherf et al.
# Submitted via: uFREEDB ActiveX Control 1.5
#
DISCID=1c0f5413
DTITLE=Adriana Calcanhoto - Adriana Calcanhoto
DYEAR=1900
DGENRE=Alternative
TTITLE0=Fico Assim Sem Você
TTITLE1=Estrelas
TTITLE2=Devolva-me
TTITLE3=Naquela Estação
TTITLE4=Como Vai Você
TTITLE5=O Retrato
TTITLE6=ng
TTITLE7=ngf
TTITLE8=xfgj
TTITLE9=Beija Eu
TTITLE10=O Outro
TTITLE11=Por Isso Eu Corro Demais
TTITLE12=ngf
TTITLE13=ngf
TTITLE14=nfg
TTITLE15=sg
TTITLE16=sfgs
TTITLE17=Nada Ficou no Lugar
TTITLE18=gsght
EXTD=
EXTT0=
EXTT1=
EXTT2=
EXTT3=
EXTT4=
EXTT5=
EXTT6=
EXTT7=
EXTT8=
EXTT9=
EXTT10=
EXTT11=
EXTT12=
EXTT13=
EXTT14=
EXTT15=
EXTT16=
EXTT17=
EXTT18=
PLAYORDER=
